<svg fill="none" height="40" viewBox="0 0 133 40" width="133" xmlns="http://www.w3.org/2000/svg"><path d="m8.93555 14.3369c0-.7243-.18718-1.2695-.56153-1.6357-.36621-.3744-1.03759-.7609-2.01416-1.1597-1.78222-.6755-3.06396-1.4648-3.84521-2.36816-.78125-.91146-1.17188-1.98568-1.17188-3.22266 0-1.49739.52897-2.69775 1.58692-3.60107 1.06608-.91146 2.41699-1.367188 4.05273-1.367188 1.0905 0 2.06299.231938 2.91748.695798.8545.45573 1.5096 1.1027 1.9653 1.94092.4639.83822.6958 1.79037.6958 2.85645h-3.57662c0-.83008-.17904-1.46078-.53711-1.89209-.34994-.43946-.85857-.65918-1.52588-.65918-.62663 0-1.11491.18717-1.46485.56152-.34993.36621-.5249.86263-.5249 1.48926 0 .48828.19531.9318.58594 1.33056.39062.39063 1.08235.79753 2.07519 1.22071 1.7334.62662 2.99073 1.39567 3.77193 2.30713.7894.9115 1.1841 2.0711 1.1841 3.479 0 1.5462-.4923 2.7547-1.477 3.6255s-2.32343 1.3061-4.01614 1.3061c-1.14746 0-2.19319-.236-3.1372-.708s-1.68457-1.1474-2.22168-2.0263c-.52897-.8789-.79346-1.9165-.79346-3.1128h3.60107c0 1.0254.19939 1.77.59815 2.2339.39876.4638 1.0498.6958 1.95312.6958 1.25326 0 1.87989-.6633 1.87989-1.9898zm9.06985-8.54491.0976 1.22071c.7731-.97657 1.7945-1.46485 3.064-1.46485 1.3184 0 2.2502.59408 2.7954 1.78223.7568-1.18815 1.8351-1.78223 3.2349-1.78223 2.3112 0 3.4952 1.59912 3.5522 4.79735v8.6548h-3.4546v-8.4351c0-.76493-.1058-1.31018-.3174-1.6357-.2115-.32552-.5696-.48828-1.0742-.48828-.6429 0-1.123.39469-1.4404 1.18408l.0244.415v8.96h-3.4546v-8.4106c0-.75688-.1017-1.30213-.3052-1.63579-.2034-.34179-.5656-.51269-1.0864-.51269-.5941 0-1.0661.32145-1.416.96435v9.59473h-3.4546v-13.20801zm21.582 13.20801c-.0977-.2035-.1953-.5452-.293-1.0254-.6185.8464-1.4567 1.2695-2.5146 1.2695-1.1068 0-2.0264-.3662-2.7588-1.0986-.7243-.7324-1.0864-1.6805-1.0864-2.8442 0-1.3835.4394-2.4536 1.3183-3.2105.8871-.7568 2.1607-1.1434 3.8208-1.1596h1.0498v-1.06206c0-.59407-.1017-1.01318-.3051-1.25732-.2035-.24414-.5005-.36621-.8912-.36621-.8626 0-1.2939.50455-1.2939 1.51367h-3.4546c0-1.22071.4557-2.22575 1.3672-3.01514.9196-.79753 2.0793-1.19629 3.479-1.19629 1.4486 0 2.5675.37842 3.3569 1.13526.7976.74869 1.1963 1.82291 1.1963 3.22265v6.21334c.0163 1.1394.1791 2.0305.4883 2.6734v.2075zm-2.0386-2.4658c.3825 0 .708-.0773.9766-.232.2685-.1546.4679-.3377.5981-.5493v-2.7466h-.83c-.586 0-1.0498.1872-1.3916.5616-.3337.3743-.5005.8748-.5005 1.5014 0 .9766.3825 1.4649 1.1474 1.4649zm14.0503-7.40969-1.1474-.09765c-.9441 0-1.5829.41503-1.9165 1.24514v8.728h-3.4668v-13.20801h3.2592l.0977 1.42822c.5452-1.1149 1.298-1.67236 2.2583-1.67236.3906 0 .708.0529.9521.15869zm6.4087-6.57959v3.24707h1.77v2.6001h-1.77v6.55521c0 .5208.0692.8789.2075 1.0742.1465.1953.4232.293.8301.293.3337 0 .6063-.0285.8179-.0855l-.0244 2.6856c-.586.2197-1.2207.3295-1.9043.3295-2.2298 0-3.357-1.2776-3.3814-3.833v-7.01901h-1.5259v-2.6001h1.5259v-3.24707zm9.6069 16.45508v-17.77344h4.6998c2.0751 0 3.7272.65918 4.956 1.97754 1.237 1.31836 1.8677 3.125 1.8921 5.41992v2.88088c0 2.3356-.6185 4.1707-1.8555 5.5054-1.2288 1.3265-2.9256 1.9897-5.0903 1.9897zm3.5889-14.78271v11.80421h1.0742c1.1963 0 2.0386-.3133 2.5269-.94.4883-.6347.7446-1.7252.769-3.2714v-3.08842c0-1.66016-.2319-2.81576-.6958-3.4668-.4638-.65918-1.2532-1.00504-2.3681-1.03759zm15.7105 15.02681c-1.7741 0-3.1576-.5289-4.1504-1.5869-.9929-1.0579-1.4893-2.5716-1.4893-4.541v-1.0498c0-2.08333.4557-3.69059 1.3672-4.82177.9115-1.13119 2.2176-1.69678 3.9185-1.69678 1.6601 0 2.9093.53304 3.7475 1.59912.8382 1.05795 1.2655 2.62858 1.2818 4.71193v1.6968h-6.8726c.0488.9765.2645 1.6927.647 2.1484.3825.4476.9725.6714 1.77.6714 1.1556 0 2.1199-.3947 2.8931-1.1841l1.3549 2.0874c-.4231.5859-1.0376 1.062-1.8432 1.4282-.8057.3581-1.6805.5371-2.6245.5371zm-2.1729-8.1054h3.4546v-.3174c-.0163-.7894-.1465-1.38754-.3906-1.79444-.2442-.40691-.6673-.61036-1.2696-.61036-.6022 0-1.0416.21566-1.3183.64698-.2686.43131-.4273 1.12302-.4761 2.07522zm12.9639 2.9785 1.6723-8.32521h3.6016l-3.626 13.20801h-3.2959l-3.6377-13.20801h3.6133zm10.5229 4.8828h-3.467v-13.20801h3.467zm-3.626-16.62598c0-.53711.171-.97656.513-1.31836.342-.341793.797-.512691 1.367-.512691s1.025.170898 1.367.512691c.342.3418.513.78125.513 1.31836 0 .52897-.171.96843-.513 1.31836-.334.34994-.789.52491-1.367.52491s-1.038-.17497-1.379-.52491c-.334-.34993-.501-.78939-.501-1.31836zm11.072 14.00148c1.001 0 1.509-.6511 1.526-1.9531h3.247c-.016 1.4404-.46 2.6041-1.331 3.4912-.871.887-1.994 1.3305-3.369 1.3305-1.701 0-2.999-.5289-3.894-1.5869-.895-1.0579-1.351-2.6163-1.367-4.6753v-1.0498c0-2.07517.439-3.65801 1.318-4.74851.887-1.09049 2.193-1.63574 3.919-1.63574 1.456 0 2.604.45166 3.442 1.35498.838.89518 1.266 2.16878 1.282 3.82077h-3.247c-.008-.74053-.131-1.31019-.367-1.70895s-.626-.59815-1.171-.59815c-.603 0-1.034.21566-1.294.64698-.261.42317-.399 1.24922-.415 2.47802v1.3428c0 1.0742.053 1.827.158 2.2583.106.4232.281.7365.525.9399.244.1953.59.293 1.038.293zm12.06 2.8686c-1.774 0-3.157-.5289-4.15-1.5869-.993-1.0579-1.489-2.5716-1.489-4.541v-1.0498c0-2.08333.455-3.69059 1.367-4.82177.911-1.13119 2.218-1.69678 3.918-1.69678 1.661 0 2.91.53304 3.748 1.59912.838 1.05795 1.265 2.62858 1.282 4.71193v1.6968h-6.873c.049.9765.265 1.6927.647 2.1484.383.4476.973.6714 1.77.6714 1.156 0 2.12-.3947 2.893-1.1841l1.355 2.0874c-.423.5859-1.037 1.062-1.843 1.4282-.806.3581-1.681.5371-2.625.5371zm-2.172-8.1054h3.454v-.3174c-.016-.7894-.146-1.38754-.391-1.79444-.244-.40691-.667-.61036-1.269-.61036s-1.042.21566-1.318.64698c-.269.43131-.428 1.12302-.476 2.07522z" fill="#fff"/><path d="m2.94727 34.9609 1.28906-4.3007h1.51758l-2.51953 7.3007c-.38672 1.0664-1.04297 1.5996-1.96876 1.5996-.20703 0-.435542-.0351-.685542-.1054v-1.1016l.269531.0176c.359371 0 .628911-.0664.808591-.1992.1836-.1289.32813-.3477.4336-.6563l.20508-.5449-2.2265675-6.3105h1.5351575zm7.39453.2871 1.875-4.5878h1.7812v6.3398h-1.4238v-4.1953l-1.7461 4.1953h-.96677l-1.75195-4.2188v4.2188h-1.42383v-6.3398h1.79297zm10.6289 1.752h-1.4238v-2.5605h-2.4668v2.5605h-1.4239v-6.3398h1.4239v2.6425h2.4668v-2.6425h1.4238zm3.0527-4.3242h1.3946c.5195 0 .9726.0898 1.3593.2695.3868.1797.6797.4317.8789.7559.2032.3242.3047.7011.3047 1.1308 0 .6524-.2304 1.1758-.6914 1.5703-.4609.3946-1.0742.5938-1.8398.5977h-2.8301v-6.3398h1.4238zm6.4161 4.3242h-1.4239v-6.3398h1.4239zm-6.4161-3.1816v2.0449h1.3887c.3477 0 .6211-.086.8203-.2578.2031-.1758.3047-.4239.3047-.7442s-.0996-.5722-.2988-.7558c-.1953-.1875-.461-.2832-.7969-.2871zm10.9161 3.2988c-.9024 0-1.6348-.2832-2.1973-.8496-.5586-.5703-.8379-1.3281-.8379-2.2735v-.1757c0-.6329.1211-1.1973.3633-1.6934.2461-.5.5898-.8887 1.0312-1.166.4414-.2774.9336-.416 1.4766-.416.8633 0 1.5293.2754 1.998.8261.4727.5508.709 1.3301.709 2.3379v.5742h-4.1426c.043.5235.2168.9376.5215 1.2422.3086.3047.6953.4571 1.1602.4571.6523 0 1.1836-.2637 1.5937-.791l.7676.7324c-.2539.3789-.5937.6738-1.0195.8847-.4219.2071-.8965.3106-1.4238.3106zm-.17-5.4317c-.3906 0-.707.1368-.9492.4102-.2383.2734-.3906.6543-.457 1.1426h2.7129v-.1055c-.0313-.4766-.1582-.8359-.3809-1.0781-.2226-.2461-.5312-.3692-.9258-.3692zm11.8008.1055h-2.0566v5.209h-1.4239v-5.209h-2.0332v-1.1308h5.5137zm3.3692 5.3262c-.9024 0-1.6348-.2832-2.1973-.8496-.5586-.5703-.8379-1.3281-.8379-2.2735v-.1757c0-.6329.1211-1.1973.3633-1.6934.2461-.5.5898-.8887 1.0312-1.166.4414-.2774.9336-.416 1.4766-.416.8633 0 1.5293.2754 1.998.8261.4727.5508.709 1.3301.709 2.3379v.5742h-4.1426c.043.5235.2168.9376.5215 1.2422.3086.3047.6953.4571 1.1602.4571.6523 0 1.1836-.2637 1.5937-.791l.7676.7324c-.2539.3789-.5937.6738-1.0195.8847-.4219.2071-.8965.3106-1.4238.3106zm-.17-5.4317c-.3906 0-.707.1368-.9492.4102-.2383.2734-.3906.6543-.457 1.1426h2.7129v-.1055c-.0313-.4766-.1582-.8359-.3809-1.0781-.2226-.2461-.5312-.3692-.9258-.3692zm6.0996 1.0606 1.2071-2.0859h1.582l-1.9394 3.123 2.0039 3.2168h-1.5704l-1.2656-2.168-1.2597 2.168h-1.5821l2.0039-3.2168-1.9336-3.123h1.5703zm9.1289 4.2539h-1.4238v-2.5605h-2.4668v2.5605h-1.4238v-6.3398h1.4238v2.6425h2.4668v-2.6425h1.4238zm1.254-3.2285c0-.6211.123-1.1797.3691-1.6758.2461-.5.5918-.8828 1.0371-1.1484.4453-.2696.957-.4043 1.5352-.4043.8554 0 1.5488.2754 2.08.8261.5352.5508.8243 1.2813.8672 2.1914l.0059.334c0 .625-.1211 1.1836-.3633 1.6758-.2383.4922-.582.8731-1.0312 1.1426-.4454.2695-.961.4043-1.5469.4043-.8946 0-1.6113-.2969-2.1504-.8906-.5352-.5977-.8027-1.3926-.8027-2.3848zm1.4238.123c0 .6524.1347 1.1641.4043 1.5352.2695.3672.6445.5508 1.125.5508.4804 0 .8535-.1875 1.1191-.5625.2696-.375.4043-.9239.4043-1.6465 0-.6406-.1387-1.1485-.416-1.5235-.2734-.375-.6465-.5625-1.1191-.5625-.4649 0-.834.1856-1.1075.5567-.2734.3672-.4101.918-.4101 1.6523zm10.9687-3.2343v6.3398h-1.4238v-5.1914h-1.793l-.1172 2.209c-.0742 1.0625-.2793 1.8262-.6152 2.291-.332.4609-.8418.6914-1.5293.6914h-.4394l-.0059-1.1836.293-.0293c.3125-.043.539-.2324.6797-.5683.1445-.3399.2363-.9571.2754-1.8516l.1171-2.707zm1.2481 3.1113c0-.6211.123-1.1797.3691-1.6758.2461-.5.5918-.8828 1.0371-1.1484.4453-.2696.9571-.4043 1.5352-.4043.8555 0 1.5488.2754 2.0801.8261.5351.5508.8242 1.2813.8671 2.1914l.0059.334c0 .625-.1211 1.1836-.3633 1.6758-.2383.4922-.582.8731-1.0312 1.1426-.4453.2695-.961.4043-1.5469.4043-.8945 0-1.6113-.2969-2.1504-.8906-.5351-.5977-.8027-1.3926-.8027-2.3848zm1.4238.123c0 .6524.1348 1.1641.4043 1.5352.2695.3672.6445.5508 1.125.5508s.8535-.1875 1.1191-.5625c.2696-.375.4043-.9239.4043-1.6465 0-.6406-.1386-1.1485-.416-1.5235-.2734-.375-.6465-.5625-1.1191-.5625-.4649 0-.834.1856-1.1074.5567-.2735.3672-.4102.918-.4102 1.6523zm9.8965-2.0859h-2.7539v5.1914h-1.418v-6.3398h4.1719zm4.7637-1.1484h1.4179v6.3398h-1.4179v-4.2305l-2.4844 4.2305h-1.418v-6.3398h1.418v4.2304zm6.8904 0h1.418v6.3398h-1.418v-4.2305l-2.484 4.2305h-1.4182v-6.3398h1.4182v4.2304z" fill="#788891"/></svg>